<svg xmlns="http://www.w3.org/2000/svg" viewBox="0 0 24 24" width="256" height="256" shape-rendering="crispEdges">
  <title>Wireless</title>
  <rect width="24" height="24" fill="#0B0B0C"/>
  <rect x="0" y="0" width="1" height="1" fill="#2A2A2E"/>
  <rect x="1" y="0" width="1" height="1" fill="#2A2A2E"/>
  <rect x="2" y="0" width="1" height="1" fill="#2A2A2E"/>
  <rect x="3" y="0" width="1" height="1" fill="#2A2A2E"/>
  <rect x="4" y="0" width="1" height="1" fill="#2A2A2E"/>
  <rect x="5" y="0" width="1" height="1" fill="#2A2A2E"/>
  <rect x="6" y="0" width="1" height="1" fill="#2A2A2E"/>
  <rect x="7" y="0" width="1" height="1" fill="#2A2A2E"/>
  <rect x="8" y="0" width="1" height="1" fill="#2A2A2E"/>
  <rect x="9" y="0" width="1" height="1" fill="#2A2A2E"/>
  <rect x="10" y="0" width="1" height="1" fill="#2A2A2E"/>
  <rect x="11" y="0" width="1" height="1" fill="#2A2A2E"/>
  <rect x="12" y="0" width="1" height="1" fill="#2A2A2E"/>
  <rect x="13" y="0" width="1" height="1" fill="#2A2A2E"/>
  <rect x="14" y="0" width="1" height="1" fill="#2A2A2E"/>
  <rect x="15" y="0" width="1" height="1" fill="#2A2A2E"/>
  <rect x="16" y="0" width="1" height="1" fill="#2A2A2E"/>
  <rect x="17" y="0" width="1" height="1" fill="#2A2A2E"/>
  <rect x="18" y="0" width="1" height="1" fill="#2A2A2E"/>
  <rect x="19" y="0" width="1" height="1" fill="#2A2A2E"/>
  <rect x="20" y="0" width="1" height="1" fill="#2A2A2E"/>
  <rect x="21" y="0" width="1" height="1" fill="#2A2A2E"/>
  <rect x="22" y="0" width="1" height="1" fill="#2A2A2E"/>
  <rect x="23" y="0" width="1" height="1" fill="#2A2A2E"/>
  <rect x="0" y="1" width="1" height="1" fill="#2A2A2E"/>
  <rect x="23" y="1" width="1" height="1" fill="#2A2A2E"/>
  <rect x="0" y="2" width="1" height="1" fill="#2A2A2E"/>
  <rect x="18" y="2" width="1" height="1" fill="#F2A93B"/>
  <rect x="23" y="2" width="1" height="1" fill="#2A2A2E"/>
  <rect x="0" y="3" width="1" height="1" fill="#2A2A2E"/>
  <rect x="17" y="3" width="1" height="1" fill="#8E8E92"/>
  <rect x="23" y="3" width="1" height="1" fill="#2A2A2E"/>
  <rect x="0" y="4" width="1" height="1" fill="#2A2A2E"/>
  <rect x="16" y="4" width="1" height="1" fill="#8E8E92"/>
  <rect x="23" y="4" width="1" height="1" fill="#2A2A2E"/>
  <rect x="0" y="5" width="1" height="1" fill="#2A2A2E"/>
  <rect x="15" y="5" width="1" height="1" fill="#8E8E92"/>
  <rect x="23" y="5" width="1" height="1" fill="#2A2A2E"/>
  <rect x="0" y="6" width="1" height="1" fill="#2A2A2E"/>
  <rect x="14" y="6" width="1" height="1" fill="#8E8E92"/>
  <rect x="23" y="6" width="1" height="1" fill="#2A2A2E"/>
  <rect x="0" y="7" width="1" height="1" fill="#2A2A2E"/>
  <rect x="2" y="7" width="1" height="1" fill="#E8E8E6"/>
  <rect x="3" y="7" width="1" height="1" fill="#E8E8E6"/>
  <rect x="4" y="7" width="1" height="1" fill="#E8E8E6"/>
  <rect x="5" y="7" width="1" height="1" fill="#E8E8E6"/>
  <rect x="6" y="7" width="1" height="1" fill="#E8E8E6"/>
  <rect x="7" y="7" width="1" height="1" fill="#E8E8E6"/>
  <rect x="8" y="7" width="1" height="1" fill="#E8E8E6"/>
  <rect x="9" y="7" width="1" height="1" fill="#E8E8E6"/>
  <rect x="10" y="7" width="1" height="1" fill="#E8E8E6"/>
  <rect x="11" y="7" width="1" height="1" fill="#E8E8E6"/>
  <rect x="12" y="7" width="1" height="1" fill="#E8E8E6"/>
  <rect x="13" y="7" width="1" height="1" fill="#E8E8E6"/>
  <rect x="14" y="7" width="1" height="1" fill="#E8E8E6"/>
  <rect x="15" y="7" width="1" height="1" fill="#E8E8E6"/>
  <rect x="16" y="7" width="1" height="1" fill="#E8E8E6"/>
  <rect x="17" y="7" width="1" height="1" fill="#E8E8E6"/>
  <rect x="18" y="7" width="1" height="1" fill="#E8E8E6"/>
  <rect x="19" y="7" width="1" height="1" fill="#E8E8E6"/>
  <rect x="23" y="7" width="1" height="1" fill="#2A2A2E"/>
  <rect x="0" y="8" width="1" height="1" fill="#2A2A2E"/>
  <rect x="2" y="8" width="1" height="1" fill="#E8E8E6"/>
  <rect x="19" y="8" width="1" height="1" fill="#E8E8E6"/>
  <rect x="23" y="8" width="1" height="1" fill="#2A2A2E"/>
  <rect x="0" y="9" width="1" height="1" fill="#2A2A2E"/>
  <rect x="2" y="9" width="1" height="1" fill="#E8E8E6"/>
  <rect x="4" y="9" width="1" height="1" fill="#8E8E92"/>
  <rect x="5" y="9" width="1" height="1" fill="#3D3D42"/>
  <rect x="6" y="9" width="1" height="1" fill="#8E8E92"/>
  <rect x="7" y="9" width="1" height="1" fill="#3D3D42"/>
  <rect x="8" y="9" width="1" height="1" fill="#8E8E92"/>
  <rect x="10" y="9" width="1" height="1" fill="#E8E8E6"/>
  <rect x="11" y="9" width="1" height="1" fill="#E8E8E6"/>
  <rect x="12" y="9" width="1" height="1" fill="#E8E8E6"/>
  <rect x="13" y="9" width="1" height="1" fill="#E8E8E6"/>
  <rect x="14" y="9" width="1" height="1" fill="#E8E8E6"/>
  <rect x="15" y="9" width="1" height="1" fill="#E8E8E6"/>
  <rect x="16" y="9" width="1" height="1" fill="#E8E8E6"/>
  <rect x="19" y="9" width="1" height="1" fill="#E8E8E6"/>
  <rect x="23" y="9" width="1" height="1" fill="#2A2A2E"/>
  <rect x="0" y="10" width="1" height="1" fill="#2A2A2E"/>
  <rect x="2" y="10" width="1" height="1" fill="#E8E8E6"/>
  <rect x="4" y="10" width="1" height="1" fill="#3D3D42"/>
  <rect x="5" y="10" width="1" height="1" fill="#8E8E92"/>
  <rect x="6" y="10" width="1" height="1" fill="#3D3D42"/>
  <rect x="7" y="10" width="1" height="1" fill="#8E8E92"/>
  <rect x="8" y="10" width="1" height="1" fill="#3D3D42"/>
  <rect x="10" y="10" width="1" height="1" fill="#E8E8E6"/>
  <rect x="13" y="10" width="1" height="1" fill="#F2A93B"/>
  <rect x="16" y="10" width="1" height="1" fill="#E8E8E6"/>
  <rect x="19" y="10" width="1" height="1" fill="#E8E8E6"/>
  <rect x="23" y="10" width="1" height="1" fill="#2A2A2E"/>
  <rect x="0" y="11" width="1" height="1" fill="#2A2A2E"/>
  <rect x="2" y="11" width="1" height="1" fill="#E8E8E6"/>
  <rect x="4" y="11" width="1" height="1" fill="#8E8E92"/>
  <rect x="5" y="11" width="1" height="1" fill="#3D3D42"/>
  <rect x="6" y="11" width="1" height="1" fill="#8E8E92"/>
  <rect x="7" y="11" width="1" height="1" fill="#3D3D42"/>
  <rect x="8" y="11" width="1" height="1" fill="#8E8E92"/>
  <rect x="10" y="11" width="1" height="1" fill="#E8E8E6"/>
  <rect x="11" y="11" width="1" height="1" fill="#8E8E92"/>
  <rect x="13" y="11" width="1" height="1" fill="#F2A93B"/>
  <rect x="15" y="11" width="1" height="1" fill="#8E8E92"/>
  <rect x="16" y="11" width="1" height="1" fill="#E8E8E6"/>
  <rect x="19" y="11" width="1" height="1" fill="#E8E8E6"/>
  <rect x="23" y="11" width="1" height="1" fill="#2A2A2E"/>
  <rect x="0" y="12" width="1" height="1" fill="#2A2A2E"/>
  <rect x="2" y="12" width="1" height="1" fill="#E8E8E6"/>
  <rect x="4" y="12" width="1" height="1" fill="#3D3D42"/>
  <rect x="5" y="12" width="1" height="1" fill="#8E8E92"/>
  <rect x="6" y="12" width="1" height="1" fill="#3D3D42"/>
  <rect x="7" y="12" width="1" height="1" fill="#8E8E92"/>
  <rect x="8" y="12" width="1" height="1" fill="#3D3D42"/>
  <rect x="10" y="12" width="1" height="1" fill="#E8E8E6"/>
  <rect x="13" y="12" width="1" height="1" fill="#F2A93B"/>
  <rect x="16" y="12" width="1" height="1" fill="#E8E8E6"/>
  <rect x="19" y="12" width="1" height="1" fill="#E8E8E6"/>
  <rect x="23" y="12" width="1" height="1" fill="#2A2A2E"/>
  <rect x="0" y="13" width="1" height="1" fill="#2A2A2E"/>
  <rect x="2" y="13" width="1" height="1" fill="#E8E8E6"/>
  <rect x="4" y="13" width="1" height="1" fill="#8E8E92"/>
  <rect x="5" y="13" width="1" height="1" fill="#3D3D42"/>
  <rect x="6" y="13" width="1" height="1" fill="#8E8E92"/>
  <rect x="7" y="13" width="1" height="1" fill="#3D3D42"/>
  <rect x="8" y="13" width="1" height="1" fill="#8E8E92"/>
  <rect x="10" y="13" width="1" height="1" fill="#E8E8E6"/>
  <rect x="11" y="13" width="1" height="1" fill="#E8E8E6"/>
  <rect x="12" y="13" width="1" height="1" fill="#E8E8E6"/>
  <rect x="13" y="13" width="1" height="1" fill="#E8E8E6"/>
  <rect x="14" y="13" width="1" height="1" fill="#E8E8E6"/>
  <rect x="15" y="13" width="1" height="1" fill="#E8E8E6"/>
  <rect x="16" y="13" width="1" height="1" fill="#E8E8E6"/>
  <rect x="19" y="13" width="1" height="1" fill="#E8E8E6"/>
  <rect x="23" y="13" width="1" height="1" fill="#2A2A2E"/>
  <rect x="0" y="14" width="1" height="1" fill="#2A2A2E"/>
  <rect x="2" y="14" width="1" height="1" fill="#E8E8E6"/>
  <rect x="4" y="14" width="1" height="1" fill="#3D3D42"/>
  <rect x="5" y="14" width="1" height="1" fill="#8E8E92"/>
  <rect x="6" y="14" width="1" height="1" fill="#3D3D42"/>
  <rect x="7" y="14" width="1" height="1" fill="#8E8E92"/>
  <rect x="8" y="14" width="1" height="1" fill="#3D3D42"/>
  <rect x="19" y="14" width="1" height="1" fill="#E8E8E6"/>
  <rect x="23" y="14" width="1" height="1" fill="#2A2A2E"/>
  <rect x="0" y="15" width="1" height="1" fill="#2A2A2E"/>
  <rect x="2" y="15" width="1" height="1" fill="#E8E8E6"/>
  <rect x="4" y="15" width="1" height="1" fill="#8E8E92"/>
  <rect x="5" y="15" width="1" height="1" fill="#3D3D42"/>
  <rect x="6" y="15" width="1" height="1" fill="#8E8E92"/>
  <rect x="7" y="15" width="1" height="1" fill="#3D3D42"/>
  <rect x="8" y="15" width="1" height="1" fill="#8E8E92"/>
  <rect x="11" y="15" width="1" height="1" fill="#8E8E92"/>
  <rect x="12" y="15" width="1" height="1" fill="#E8E8E6"/>
  <rect x="13" y="15" width="1" height="1" fill="#8E8E92"/>
  <rect x="16" y="15" width="1" height="1" fill="#8E8E92"/>
  <rect x="17" y="15" width="1" height="1" fill="#E8E8E6"/>
  <rect x="18" y="15" width="1" height="1" fill="#8E8E92"/>
  <rect x="19" y="15" width="1" height="1" fill="#E8E8E6"/>
  <rect x="23" y="15" width="1" height="1" fill="#2A2A2E"/>
  <rect x="0" y="16" width="1" height="1" fill="#2A2A2E"/>
  <rect x="2" y="16" width="1" height="1" fill="#E8E8E6"/>
  <rect x="4" y="16" width="1" height="1" fill="#3D3D42"/>
  <rect x="5" y="16" width="1" height="1" fill="#8E8E92"/>
  <rect x="6" y="16" width="1" height="1" fill="#3D3D42"/>
  <rect x="7" y="16" width="1" height="1" fill="#8E8E92"/>
  <rect x="8" y="16" width="1" height="1" fill="#3D3D42"/>
  <rect x="11" y="16" width="1" height="1" fill="#E8E8E6"/>
  <rect x="12" y="16" width="1" height="1" fill="#F2A93B"/>
  <rect x="13" y="16" width="1" height="1" fill="#E8E8E6"/>
  <rect x="16" y="16" width="1" height="1" fill="#E8E8E6"/>
  <rect x="18" y="16" width="1" height="1" fill="#E8E8E6"/>
  <rect x="19" y="16" width="1" height="1" fill="#E8E8E6"/>
  <rect x="23" y="16" width="1" height="1" fill="#2A2A2E"/>
  <rect x="0" y="17" width="1" height="1" fill="#2A2A2E"/>
  <rect x="2" y="17" width="1" height="1" fill="#E8E8E6"/>
  <rect x="4" y="17" width="1" height="1" fill="#8E8E92"/>
  <rect x="5" y="17" width="1" height="1" fill="#3D3D42"/>
  <rect x="6" y="17" width="1" height="1" fill="#8E8E92"/>
  <rect x="7" y="17" width="1" height="1" fill="#3D3D42"/>
  <rect x="8" y="17" width="1" height="1" fill="#8E8E92"/>
  <rect x="11" y="17" width="1" height="1" fill="#8E8E92"/>
  <rect x="12" y="17" width="1" height="1" fill="#E8E8E6"/>
  <rect x="13" y="17" width="1" height="1" fill="#8E8E92"/>
  <rect x="16" y="17" width="1" height="1" fill="#8E8E92"/>
  <rect x="17" y="17" width="1" height="1" fill="#E8E8E6"/>
  <rect x="18" y="17" width="1" height="1" fill="#8E8E92"/>
  <rect x="19" y="17" width="1" height="1" fill="#E8E8E6"/>
  <rect x="23" y="17" width="1" height="1" fill="#2A2A2E"/>
  <rect x="0" y="18" width="1" height="1" fill="#2A2A2E"/>
  <rect x="2" y="18" width="1" height="1" fill="#E8E8E6"/>
  <rect x="19" y="18" width="1" height="1" fill="#E8E8E6"/>
  <rect x="23" y="18" width="1" height="1" fill="#2A2A2E"/>
  <rect x="0" y="19" width="1" height="1" fill="#2A2A2E"/>
  <rect x="2" y="19" width="1" height="1" fill="#E8E8E6"/>
  <rect x="3" y="19" width="1" height="1" fill="#E8E8E6"/>
  <rect x="4" y="19" width="1" height="1" fill="#E8E8E6"/>
  <rect x="5" y="19" width="1" height="1" fill="#E8E8E6"/>
  <rect x="6" y="19" width="1" height="1" fill="#E8E8E6"/>
  <rect x="7" y="19" width="1" height="1" fill="#E8E8E6"/>
  <rect x="8" y="19" width="1" height="1" fill="#E8E8E6"/>
  <rect x="9" y="19" width="1" height="1" fill="#E8E8E6"/>
  <rect x="10" y="19" width="1" height="1" fill="#E8E8E6"/>
  <rect x="11" y="19" width="1" height="1" fill="#E8E8E6"/>
  <rect x="12" y="19" width="1" height="1" fill="#E8E8E6"/>
  <rect x="13" y="19" width="1" height="1" fill="#E8E8E6"/>
  <rect x="14" y="19" width="1" height="1" fill="#E8E8E6"/>
  <rect x="15" y="19" width="1" height="1" fill="#E8E8E6"/>
  <rect x="16" y="19" width="1" height="1" fill="#E8E8E6"/>
  <rect x="17" y="19" width="1" height="1" fill="#E8E8E6"/>
  <rect x="18" y="19" width="1" height="1" fill="#E8E8E6"/>
  <rect x="19" y="19" width="1" height="1" fill="#E8E8E6"/>
  <rect x="23" y="19" width="1" height="1" fill="#2A2A2E"/>
  <rect x="0" y="20" width="1" height="1" fill="#2A2A2E"/>
  <rect x="3" y="20" width="1" height="1" fill="#3D3D42"/>
  <rect x="4" y="20" width="1" height="1" fill="#3D3D42"/>
  <rect x="17" y="20" width="1" height="1" fill="#3D3D42"/>
  <rect x="18" y="20" width="1" height="1" fill="#3D3D42"/>
  <rect x="23" y="20" width="1" height="1" fill="#2A2A2E"/>
  <rect x="0" y="21" width="1" height="1" fill="#2A2A2E"/>
  <rect x="23" y="21" width="1" height="1" fill="#2A2A2E"/>
  <rect x="0" y="22" width="1" height="1" fill="#2A2A2E"/>
  <rect x="23" y="22" width="1" height="1" fill="#2A2A2E"/>
  <rect x="0" y="23" width="1" height="1" fill="#2A2A2E"/>
  <rect x="1" y="23" width="1" height="1" fill="#2A2A2E"/>
  <rect x="2" y="23" width="1" height="1" fill="#2A2A2E"/>
  <rect x="3" y="23" width="1" height="1" fill="#2A2A2E"/>
  <rect x="4" y="23" width="1" height="1" fill="#2A2A2E"/>
  <rect x="5" y="23" width="1" height="1" fill="#2A2A2E"/>
  <rect x="6" y="23" width="1" height="1" fill="#2A2A2E"/>
  <rect x="7" y="23" width="1" height="1" fill="#2A2A2E"/>
  <rect x="8" y="23" width="1" height="1" fill="#2A2A2E"/>
  <rect x="9" y="23" width="1" height="1" fill="#2A2A2E"/>
  <rect x="10" y="23" width="1" height="1" fill="#2A2A2E"/>
  <rect x="11" y="23" width="1" height="1" fill="#2A2A2E"/>
  <rect x="12" y="23" width="1" height="1" fill="#2A2A2E"/>
  <rect x="13" y="23" width="1" height="1" fill="#2A2A2E"/>
  <rect x="14" y="23" width="1" height="1" fill="#2A2A2E"/>
  <rect x="15" y="23" width="1" height="1" fill="#2A2A2E"/>
  <rect x="16" y="23" width="1" height="1" fill="#2A2A2E"/>
  <rect x="17" y="23" width="1" height="1" fill="#2A2A2E"/>
  <rect x="18" y="23" width="1" height="1" fill="#2A2A2E"/>
  <rect x="19" y="23" width="1" height="1" fill="#2A2A2E"/>
  <rect x="20" y="23" width="1" height="1" fill="#2A2A2E"/>
  <rect x="21" y="23" width="1" height="1" fill="#2A2A2E"/>
  <rect x="22" y="23" width="1" height="1" fill="#2A2A2E"/>
  <rect x="23" y="23" width="1" height="1" fill="#2A2A2E"/>
</svg>
